<?xml version="1.0" encoding="UTF-8" standalone="no"?>
<!DOCTYPE svg PUBLIC "-//W3C//DTD SVG 1.1//EN" "http://www.w3.org/Graphics/SVG/1.1/DTD/svg11.dtd">
<svg width="100%" height="100%" viewBox="0 0 630 630" version="1.1" xmlns="http://www.w3.org/2000/svg" xmlns:xlink="http://www.w3.org/1999/xlink" xml:space="preserve" xmlns:serif="http://www.serif.com/" style="fill-rule:evenodd;clip-rule:evenodd;stroke-linejoin:round;stroke-miterlimit:2;">
    <g transform="matrix(1,0,0,1,-389,-49.129742)">
        <g transform="matrix(0.779002,0,0,0.820313,195.661702,49.129742)">
            <rect x="248.187" y="0" width="808.727" height="768" style="fill:none;"/>
            <g transform="matrix(-1.283694,0,0,1.219048,1001.4749,7.156125)">
                <path d="M77.511,533.496C61.312,509.958 43.784,491.344 26.307,450.581C9.334,410.991 1.739,361.87 1.902,346.507C2.254,313.306 -0.17,312.538 8.681,296.611C40.608,239.161 108.513,165.77 118.229,155.27C118.616,154.852 120.16,151.204 120.688,150.663C148.567,122.148 162.346,102.012 208.582,84.693C211.449,83.619 243.675,71.549 244.49,71.425C259.702,69.108 261.365,63.537 315.416,43.3C462.954,-11.939 487.183,0.424 500.629,7.284C510.134,12.134 545.903,75.641 521.716,167.589C514.374,195.5 541.672,206.592 509.375,292.444C508.175,295.633 495.758,328.642 494.998,332.534C491.183,352.09 460.815,429.504 468.346,442.579C476.757,457.182 473.702,457.964 473.87,464.455C473.976,468.54 478.119,461.824 479.391,461.284C491.173,456.277 486.301,495.92 486.789,497.407C487.893,500.766 496.378,526.583 486.678,541.61C471.362,565.336 457.085,570.014 445.391,576.323C434.387,582.26 350.96,659.576 163.389,584.77C157.26,582.326 119.272,567.176 91.198,544.88C89.674,542.251 89.79,542.196 89.213,541.793C79.42,534.948 79.404,529.529 77.511,533.496Z" style="fill:rgb(68,78,86);"/>
                <path d="M513.935,239.552C504.915,290.626 450.397,409.265 458.635,442.465C458.852,443.339 459.082,444.267 450.264,450.004C448.572,451.105 437.813,434.801 438.938,428.552C445.017,394.755 468.915,326.964 481.067,309.198C487.103,300.374 512.708,242.386 479.216,219.903C449.541,199.983 269.766,154.588 167.756,357.637C157.498,378.056 140.183,418.027 141.778,421.397C145.53,429.322 201.605,482.494 238.756,506.129C239.239,506.436 338.767,578.739 441.385,547.173C479.892,535.328 481.576,498.32 482.049,518.497C483.359,574.349 345.197,619.085 220.576,541.186C207.498,533.011 272.554,597.775 380.461,590.054C399.578,588.686 422.67,581.815 404.835,588.933C361.742,606.13 303.772,626.171 170.442,576.648C124.253,559.491 77.204,525.52 78.945,514.586C125.975,219.25 329.301,111.795 353.2,97.019C358.43,93.786 361.692,89.316 361.42,95.499C360.726,111.243 371.601,122.341 370.658,110.491C370.138,103.97 374.585,81.793 383.75,75.914C460.928,26.404 508.879,13.073 519.117,92.542C523.684,127.991 509.511,171.51 510.465,177.505C515.384,208.413 516.828,208.315 513.935,239.552Z" style="fill:rgb(194,205,211);"/>
                <path d="M355.936,524.387C355.876,521.177 355.547,503.531 345.133,485.74C332.063,463.409 303.465,505.173 301.26,507.135C299.105,509.051 297.961,492.616 295.523,483.494C288.019,455.417 275.535,460.494 246.196,483.046C243.543,485.085 245.136,445.001 232.415,439.799C220.629,434.98 196.92,455.156 194.368,457.328C190.573,460.558 152.488,420.18 151.967,419.312C150.697,417.198 178.449,353.137 186.58,344.592C188.91,342.142 218.489,361.984 226.613,345.551C233.928,330.754 231.027,330.145 232.885,308.623C233.181,305.193 237.92,311.745 254.489,318.53C265.609,323.083 280.395,325.914 283.929,278.615C284.386,272.493 288.584,282.706 304.728,294.172C324.6,308.285 334.111,298.688 341.896,262.692C343.583,254.89 351.256,284.783 372.592,294.258C381.874,298.379 396.722,278.536 404.626,258.563C408.241,249.426 410.146,266.603 416.407,280.544C426.89,303.885 436.812,300.881 453.298,281.313C465.167,267.226 455.917,288.763 465.335,310.571C469.059,319.194 439.248,374.316 430.398,423.48C426.005,447.887 446.293,446.399 440.242,462.399C434.945,476.405 461.282,488.135 454.512,490.673C452.191,491.543 447.49,477.415 434.437,496.458C424.091,511.554 417.523,529.35 417.422,529.387C414.9,530.319 413.557,520.79 412.597,517.47C391.159,443.301 362.98,525.175 357.528,525.017C356.997,524.807 356.467,524.597 355.936,524.387Z" style="fill:rgb(103,31,34);"/>
                <path d="M505.396,41.585C488.028,27.446 463.996,16.021 375.195,76.037C308.219,121.301 119.315,218.555 75.751,511.605C75.311,514.568 70.313,507.628 69.972,507.154C7.827,420.863 11.54,348.742 12.084,314.501C12.715,314.103 13.541,315.709 14.172,315.311C14.914,314.842 14.51,313.577 14.839,312.763C20.893,297.76 67.611,240.229 68.845,238.768C170.968,117.939 176.522,119.04 216.436,104.324C308.003,70.564 431.371,14.129 484.405,24.923C497.459,27.579 506.878,39.58 506.85,40.5C506.832,41.104 505.414,40.98 505.396,41.585Z" style="fill:rgb(132,149,158);"/>
                <path d="M505.396,41.585C505.414,40.98 506.832,41.104 506.85,40.5C506.878,39.58 497.459,27.579 484.405,24.923C431.371,14.129 308.003,70.564 216.436,104.324C176.522,119.04 170.968,117.939 68.845,238.768C67.611,240.229 20.893,297.76 14.839,312.763C14.51,313.577 14.914,314.842 14.172,315.311C13.541,315.709 12.715,314.103 12.084,314.501C13.746,306.325 16.666,291.96 69.088,227.163C150.031,127.111 170.99,108.094 214.487,92.466C280.373,68.795 454.936,-6.712 492.584,14.35C505.376,21.506 512.665,51.695 512.631,51.697C511.637,51.733 511.786,51.327 505.396,41.585Z" style="fill:rgb(168,182,189);"/>
                <path d="M226.782,286.748C240.196,272.401 239.824,272.272 254.834,259.934C330.356,197.853 423.519,205.094 469.34,224.89C489.027,233.395 489.109,260.71 485.499,258.501C469.715,248.843 468.854,250.375 467.744,249.219C439.878,220.207 417.602,237.271 407.39,233.793C358.137,217.016 351.065,240.343 338.558,239.095C288.113,234.065 289.796,257.861 278.547,259.714C231.022,267.546 239.532,285.028 219.537,297.647C213.788,301.275 226.084,287.528 226.782,286.748Z" style="fill:rgb(195,113,112);"/>
                <path d="M167.835,150.627C168.581,149.006 169.098,147.286 169.844,145.665C184.978,112.77 220.841,131.267 209.773,171.577C199.756,208.054 155.395,201.922 167.835,150.627Z" style="fill:rgb(69,79,88);"/>
                <path d="M371.399,283.617C361.262,277.991 351.171,260.235 346.516,247.495C344.981,243.292 373.49,230.302 398.581,239.269C401.093,240.167 408.473,243.053 389.118,271.241C378.473,286.744 376.35,287.291 371.399,283.617Z" style="fill:rgb(253,254,254);"/>
                <path d="M322.682,495.702C329.832,489.851 329.64,489.712 332.71,487.826C339.149,483.871 348.485,508.898 349.952,536.495C350.284,542.733 315.987,533.213 302.696,525.148C296.808,521.575 320.668,497.715 322.682,495.702Z" style="fill:rgb(253,254,254);"/>
                <path d="M407.878,533.44C408.552,538.852 411.779,541.049 406.41,542.116C402.901,542.813 375.808,548.198 361.695,541.057C357.299,538.832 387.946,489.469 393.088,494.981C401.308,503.794 407.165,530.222 407.878,533.44Z" style="fill:rgb(253,254,254);"/>
                <path d="M310.408,287.615C300.709,282.628 289.293,268.264 287.745,266.316C284.63,262.398 308.169,241.331 335.373,246.927C339.108,247.695 331.475,275.183 325.115,286.273C319.914,295.341 317.321,292.245 310.408,287.615Z" style="fill:rgb(253,254,253);"/>
                <path d="M437.637,285.669C429.867,291.281 429.051,286.861 424.695,278.395C420.085,269.437 411.416,243.018 414.652,241.846C432.57,235.362 464.34,248.087 460.264,256.401C451.741,273.787 443.48,279.844 437.637,285.669Z" style="fill:rgb(253,253,253);"/>
                <path d="M290.892,501.458C290.956,503.415 292.923,521.278 289.557,520.242C271.119,514.569 243.265,497.251 246.777,493.755C260.448,480.146 280.61,470.736 282.187,472.802C287.846,480.214 290.552,499.086 290.892,501.458Z" style="fill:rgb(254,254,254);"/>
                <path d="M273.883,292.581C269.787,308.28 270.575,316.442 255.638,310.162C231.302,299.928 234.775,294.539 235.914,292.771C249.236,272.099 277.125,265.097 276.608,271.506C275.283,287.927 274.352,289.471 273.883,292.581Z" style="fill:rgb(253,254,254);"/>
                <path d="M456.909,514.422C457.148,516.926 464.611,527.063 439.402,537.263C433.838,539.514 420.25,542.487 421.872,538.633C423.462,534.852 443.599,486.995 450.108,495.837C453.291,500.16 456.519,512.888 456.909,514.422Z" style="fill:rgb(253,254,253);"/>
                <path d="M233.842,458.422C234.311,460.856 240.49,492.922 234.546,489.396C231.548,487.617 195.308,466.119 200.797,461.837C212.924,452.378 226.868,448.452 228.484,448.154C231.354,447.624 233.591,457.644 233.842,458.422Z" style="fill:rgb(253,254,253);"/>
                <path d="M224.968,312.511C223.242,334.094 222.944,345.358 210.575,343.035C192.523,339.645 194.155,335.96 194.926,334.772C209.102,312.919 224.666,301.036 224.888,305.386C225.01,307.758 224.847,310.139 224.968,312.511Z" style="fill:rgb(253,254,254);"/>
                <path d="M468.067,286.541C467.779,279.734 465.072,257.542 471.562,259.319C496.907,266.259 478.685,297.384 477.017,300.234C469.978,312.257 469.555,297.006 468.067,286.541Z" style="fill:rgb(253,254,253);"/>
                <path d="M464.789,493.666C470.417,485.377 470.094,485.328 476.025,477.116C489.003,459.15 468.868,533.208 465.533,514.493C463.613,503.72 459.97,503.384 464.789,493.666Z" style="fill:rgb(253,254,253);"/>
                <path d="M465.925,467.536C462.965,483.052 460.727,483.009 459.873,482.083C449.03,470.319 442.697,467.198 454.885,456.901C460.952,451.775 464.857,448.587 465.73,456.468C465.73,456.468 465.91,466.651 465.925,467.536Z" style="fill:rgb(252,253,253);"/>
                <path d="M174.896,150.554C175.191,149.513 178.253,138.719 184.612,141.144C196.105,145.527 176.947,170.926 174.896,150.554Z" style="fill:rgb(251,252,252);"/>
                <path d="M355.936,524.387C356.467,524.597 356.997,524.807 357.528,525.017C356.473,525.558 356.47,525.419 355.936,524.387Z" style="fill:rgb(88,65,70);"/>
            </g>
        </g>
    </g>
</svg>
